<svg xmlns="http://www.w3.org/2000/svg" width="183" height="183" viewBox="0 0 183 183">
    <path fill="#A63489" d="M106.848 106.901c-6.605 6.613-11.765 14.347-15.347 22.724-3.584-8.377-8.744-16.11-15.35-22.724-6.623-6.634-14.38-11.812-22.776-15.401 8.396-3.589 16.153-8.77 22.777-15.401 6.605-6.61 11.765-14.352 15.35-22.724 3.581 8.372 8.74 16.113 15.346 22.724 6.624 6.631 14.38 11.812 22.777 15.401-8.396 3.589-16.153 8.767-22.777 15.401m54.65-31.36h-1.344l-.008.035c-.193-.005-.387-.023-.585-.008-14.057 1.055-27.994-4.042-38.055-14.107-10.06-10.059-15.154-24.001-14.102-38.06.013-.186-.005-.367-.01-.553h.007v-1.345c0-3.454-2.798-6.253-6.251-6.253h-19.4c-3.452 0-6.253 2.8-6.253 6.253v1.345l.084.018c-.005.175-.023.354-.01.534 1.054 14.06-4.042 28.002-14.103 38.06C51.41 71.527 37.47 76.624 23.414 75.569c-.191-.012-.374.003-.563.008l-.007-.036h-1.342c-3.453 0-6.252 2.8-6.252 6.256v19.403c0 3.451 2.799 6.253 6.252 6.253h.853c.346.04.7.053 1.059.025 14.056-1.051 27.996 4.045 38.054 14.106 10.061 10.063 15.157 24.003 14.103 38.06-.013.17.007.328.01.494l-.084.015v1.345c0 3.451 2.8 6.253 6.254 6.253h19.399c3.453 0 6.251-2.802 6.251-6.253v-1.345h-.005c.003-.168.02-.333.008-.51-1.052-14.056 4.041-27.996 14.102-38.06 10.061-10.06 23.998-15.156 38.055-14.105.359.028.713.016 1.061-.025h.876c3.45 0 6.252-2.802 6.252-6.253V81.796c0-3.456-2.801-6.256-6.252-6.256" opacity=".092"/>
</svg>
